#!OML:ASF F:\VICON\USERDATA\INSTALL\rory3\rory3.ASF
:FULLY-SPECIFIED
:DEGREES
634
root -0.337909 17.4504 -0.283343 2.17252 0.878617 -0.74939
lowerback -1.89257 -0.345522 0.265787
upperback -0.303932 -0.430538 -4.39596
thorax 0.71388 -0.211042 -4.69221
lowerneck -14.0498 -11.9849 -17.2478
upperneck 11.1555 -13.2739 4.38161
head 7.13679 -6.79408 2.57781
rclavicle -1.10574e-014 -2.22639e-014
rhumerus 17.1609 -2.0739 1.00661
rradius 135.036
rwrist 21.4045
rhand -26.156 22.0284
rfingers 7.12502
rthumb 0.395116 -7.95095
lclavicle -1.10574e-014 -2.22639e-014
lhumerus 18.744 -6.32714 37.7372
lradius 132.909
lwrist -3.06548
lhand -9.06926 10.0463
lfingers 7.12502
lthumb 16.8798 39.3327
rfemur 6.44107 15.5205 22.2748
rtibia -3.18055e-015
rfoot -5.35921 -16.5515
rtoes -14.0916
lfemur -0.334006 -15.3361 -16.9697
ltibia 10.9948
lfoot -12.9411 8.67608
ltoes -19.6612
635
root -0.334945 17.4514 -0.286889 2.2118 0.822573 -0.678498
lowerback -1.89266 -0.368535 0.2306
upperback -0.270681 -0.459546 -4.37788
thorax 0.746105 -0.224949 -4.65419
lowerneck -14.1334 -11.9603 -17.13
upperneck 10.8956 -13.2407 4.36332
head 7.05101 -6.76632 2.56298
rclavicle -7.47927e-015 -5.88403e-014
rhumerus 17.2496 -2.05592 0.909586
rradius 134.996
rwrist 21.2526
rhand -25.3038 22.1429
rfingers 7.12502
rthumb 1.21816 -7.8334
lclavicle -7.47927e-015 -5.88403e-014
lhumerus 18.6571 -6.33702 37.7984
lradius 132.836
lwrist -2.87378
lhand -8.21976 10.4892
lfingers 7.12502
lthumb 17.6974 39.7038
rfemur 6.37587 15.5844 22.1682
rtibia -6.36111e-015
rfoot -5.32199 -16.5579
rtoes -13.8695
lfemur -0.387759 -15.2647 -17.0435
ltibia 11.0064
lfoot -13.0358 8.65707
ltoes -19.2519
636
root -0.334739 17.4522 -0.291175 2.2249 0.758336 -0.711476
lowerback -1.8457 -0.371427 0.297144
upperback -0.222458 -0.464428 -4.33998
thorax 0.76868 -0.226452 -4.65241
lowerneck -14.1973 -11.9637 -17.0639
upperneck 10.6761 -13.2495 4.40964
head 6.98804 -6.75731 2.5698
rclavicle 4.74598e-015 6.20208e-014
rhumerus 17.307 -2.0792 0.841967
rradius 134.933
rwrist 21.1042
rhand -24.751 22.1383
rfingers 7.12502
rthumb 1.75205 -7.83422
lclavicle 4.74598e-015 6.20208e-014
lhumerus 18.6762 -6.33058 37.8989
lradius 132.799
lwrist -2.35817
lhand -7.77854 10.3661
lfingers 7.12502
lthumb 18.1219 39.5419
rfemur 6.3378 15.6585 22.1984
rtibia -2.06736e-014
rfoot -5.24674 -16.5735
rtoes -13.865
lfemur -0.395668 -15.1819 -16.9967
ltibia 10.9705
lfoot -12.9251 8.61308
ltoes -18.9139
637
root -0.331842 17.4531 -0.297236 2.25364 0.753283 -0.676286
lowerback -1.76914 -0.36916 0.362396
upperback -0.187219 -0.463063 -4.34286
thorax 0.761507 -0.225253 -4.69202
lowerneck -14.223 -11.9639 -17.032
upperneck 10.4798 -13.2591 4.48367
head 6.93115 -6.74936 2.5914
rclavicle 1.04362e-014 3.49861e-014
rhumerus 17.2962 -2.03817 0.838828
rradius 134.893
rwrist 20.9978
rhand -24.5792 22.0275
rfingers 7.12502
rthumb 1.918 -7.94365
lclavicle 1.04362e-014 3.49861e-014
lhumerus 18.7004 -6.48647 37.9996
lradius 132.865
lwrist -1.75703
lhand -7.92583 10.0916
lfingers 7.12502
lthumb 17.9802 39.2805
rfemur 6.27801 15.6725 22.1286
rtibia 0
rfoot -5.2778 -16.5667
rtoes -13.503
lfemur -0.417723 -15.1604 -17.0259
ltibia 10.8952
lfoot -12.785 8.53552
ltoes -18.5535
638
root -0.3274 17.4545 -0.302879 2.33795 0.729486 -0.531737
lowerback -1.7738 -0.361611 0.320205
upperback -0.184817 -0.451664 -4.38035
thorax 0.767587 -0.219518 -4.70702
lowerneck -14.1153 -11.9199 -16.9456
upperneck 10.177 -13.2418 4.54413
head 6.81037 -6.72765 2.61455
rclavicle -1.30452e-014 2.54444e-014
rhumerus 17.247 -1.97788 0.774974
rradius 134.868
rwrist 20.8555
rhand -24.2269 22.165
rfingers 7.12502
rthumb 2.25827 -7.80275
lclavicle -1.30452e-014 2.54444e-014
lhumerus 18.7225 -6.74633 38.0867
lradius 132.835
lwrist -1.55567
lhand -7.52967 10.2904
lfingers 7.12502
lthumb 18.3613 39.4438
rfemur 6.16139 15.7035 21.9152
rtibia -1.59028e-014
rfoot -5.35057 -16.533
rtoes -13.4808
lfemur -0.485187 -15.1226 -17.1776
ltibia 10.8206
lfoot -12.7584 8.51575
ltoes -18.2648
639
root -0.324834 17.4546 -0.309557 2.34836 0.654876 -0.489692
lowerback -1.67346 -0.339029 0.317145
upperback -0.161502 -0.422966 -4.35673
thorax 0.737858 -0.205255 -4.67913
lowerneck -14.054 -11.9032 -16.8882
upperneck 9.88747 -13.2433 4.58669
head 6.7043 -6.71681 2.63041
rclavicle -7.40473e-015 -3.02153e-014
rhumerus 17.1929 -1.92717 0.756804
rradius 134.845
rwrist 20.6043
rhand -24.1015 22.2006
rfingers 7.12502
rthumb 2.37934 -7.76593
lclavicle -7.40473e-015 -3.02153e-014
lhumerus 18.7419 -6.9375 38.2225
lradius 132.694
lwrist -1.62096
lhand -7.03412 10.3616
lfingers 7.12502
lthumb 18.838 39.4694
rfemur 6.11257 15.7854 21.8508
rtibia -1.11319e-014
rfoot -5.30981 -16.5194
rtoes -14.0581
lfemur -0.464333 -15.0332 -17.2326
ltibia 10.7433
lfoot -12.7343 8.5461
ltoes -18.1953
640
root -0.323788 17.4545 -0.314652 2.32271 0.593659 -0.44635
lowerback -1.5811 -0.326126 0.293202
upperback -0.0798742 -0.40469 -4.31441
thorax 0.771899 -0.194866 -4.62056
lowerneck -14.1143 -11.9031 -16.8517
upperneck 9.61341 -13.2379 4.61962
head 6.62303 -6.70218 2.64044
rclavicle -7.00716e-015 4.45278e-014
rhumerus 17.2274 -1.90802 0.785788
rradius 134.8
rwrist 20.3978
rhand -24.2836 21.938
rfingers 7.12502
rthumb 2.20349 -8.03042
lclavicle -7.00716e-015 4.45278e-014
lhumerus 18.826 -7.03451 38.4053
lradius 132.637
lwrist -1.21241
lhand -6.71719 10.1672
lfingers 7.12502
lthumb 19.1428 39.2451
rfemur 6.11931 15.8527 21.8005
rtibia -1.74931e-014
rfoot -5.21951 -16.5502
rtoes -13.9427
lfemur -0.434198 -14.9589 -17.2931
ltibia 10.7191
lfoot -12.7287 8.60452
ltoes -18.5
641
root -0.32222 17.4555 -0.320245 2.31717 0.524425 -0.439761
lowerback -1.49515 -0.309722 0.322549
upperback -0.00856362 -0.382988 -4.26769
thorax 0.798839 -0.182816 -4.58768
lowerneck -14.1996 -11.9059 -16.8324
upperneck 9.4074 -13.2341 4.68169
head 6.57163 -6.68817 2.65898
rclavicle 1.12313e-014 6.36111e-015
rhumerus 17.2629 -1.91744 0.799777
rradius 134.781
rwrist 20.1039
rhand -24.2761 21.6736
rfingers 7.12502
rthumb 2.21074 -8.29468
lclavicle 1.12313e-014 6.36111e-015
lhumerus 18.9522 -7.11225 38.6621
lradius 132.554
lwrist -0.744512
lhand -5.55812 10.0542
lfingers 7.12502
lthumb 20.2571 39.0179
rfemur 6.08575 15.93 21.7834
rtibia 9.54166e-015
rfoot -5.08888 -16.5914
rtoes -14.096
lfemur -0.450136 -14.8739 -17.3017
ltibia 10.7273
lfoot -12.7768 8.61551
ltoes -18.6396
642
root -0.320785 17.4565 -0.327233 2.34962 0.435444 -0.550272
lowerback -1.41398 -0.296978 0.480777
upperback 0.00135044 -0.370488 -4.20441
thorax 0.763895 -0.176393 -4.6107
lowerneck -14.1641 -11.8685 -16.7626
upperneck 9.15508 -13.2041 4.71271
head 6.4777 -6.66352 2.67175
rclavicle 1.2921e-014 -2.06736e-014
rhumerus 17.308 -1.83521 0.733788
rradius 134.755
rwrist 19.7148
rhand -23.8668 21.6576
rfingers 7.12502
rthumb 2.60597 -8.30623
lclavicle 1.2921e-014 -2.06736e-014
lhumerus 18.9837 -7.26377 38.8255
lradius 132.47
lwrist -0.368051
lhand -4.60583 9.96601
lfingers 7.12502
lthumb 21.1721 38.8299
rfemur 6.00217 16.0325 21.8842
rtibia 3.18055e-015
rfoot -5.00397 -16.5819
rtoes -14.3046
lfemur -0.50792 -14.7622 -17.1702
ltibia 10.7394
lfoot -12.7443 8.44248
ltoes -17.9378
643
root -0.318199 17.4583 -0.334336 2.39908 0.369018 -0.51238
lowerback -1.38373 -0.282504 0.522542
upperback 0.0192124 -0.351769 -4.21167
thorax 0.766547 -0.1666 -4.64155
lowerneck -14.1141 -11.8206 -16.6236
upperneck 8.91377 -13.1715 4.70379
head 6.3776 -6.63893 2.66327
rclavicle -7.65321e-015 4.77083e-015
rhumerus 17.3056 -1.78521 0.654101
rradius 134.743
rwrist 19.4229
rhand -23.5606 21.6365
rfingers 7.12502
rthumb 2.90168 -8.32349
lclavicle -7.65321e-015 4.77083e-015
lhumerus 18.9573 -7.4115 38.813
lradius 132.54
lwrist 0.0888668
lhand -4.36208 9.97545
lfingers 7.12502
lthumb 21.4062 38.8129
rfemur 5.90938 16.1081 21.8018
rtibia 0
rfoot -5.0095 -16.5681
rtoes -14.0638
lfemur -0.588582 -14.6789 -17.2066
ltibia 10.752
lfoot -12.6723 8.30784
ltoes -17.3839
644
root -0.314405 17.458 -0.341149 2.41597 0.333076 -0.483144
lowerback -1.28755 -0.276241 0.589792
upperback 0.0507183 -0.345145 -4.21266
thorax 0.745101 -0.162918 -4.68019
lowerneck -14.0786 -11.7856 -16.4625
upperneck 8.60465 -13.1539 4.67858
head 6.2568 -6.62006 2.64546
rclavicle -8.94531e-015 -4.29375e-014
rhumerus 17.2712 -1.72994 0.583586
rradius 134.697
rwrist 19.3983
rhand -23.8815 21.6149
rfingers 7.12502
rthumb 2.59182 -8.34914
lclavicle -8.94531e-015 -4.29375e-014
lhumerus 18.9293 -7.62755 38.7061
lradius 132.484
lwrist 0.249623
lhand -4.66228 9.87805
lfingers 7.12502
lthumb 21.1179 38.748
rfemur 5.864 16.1525 21.7386
rtibia 1.59028e-014
rfoot -5.02144 -16.5836
rtoes -14.2996
lfemur -0.625611 -14.6275 -17.2471
ltibia 10.7459
lfoot -12.6061 8.38401
ltoes -18.5652
645
root -0.310271 17.4591 -0.349081 2.44564 0.305657 -0.45139
lowerback -1.14131 -0.313588 0.618837
upperback 0.0799274 -0.397407 -4.1658
thorax 0.688659 -0.189497 -4.64766
lowerneck -14.1259 -11.7502 -16.4135
upperneck 8.27492 -13.1103 4.74867
head 6.15428 -6.58362 2.673
rclavicle 6.41081e-015 9.54166e-015
rhumerus 17.3501 -1.67593 0.542748
rradius 134.627
rwrist 19.4427
rhand -24.1031 21.6673
rfingers 7.12502
rthumb 2.37782 -8.29919
lclavicle 6.41081e-015 9.54166e-015
lhumerus 18.901 -7.88948 38.7631
lradius 132.438
lwrist 0.539577
lhand -4.91111 9.62068
lfingers 7.12502
lthumb 20.8788 38.5171
rfemur 5.79183 16.1886 21.6673
rtibia -2.54444e-014
rfoot -4.99648 -16.572
rtoes -14.7264
lfemur -0.653169 -14.5841 -17.29
ltibia 10.6861
lfoot -12.5205 8.42507
ltoes -19.0204
